<svg xmlns="http://www.w3.org/2000/svg" xmlns:xlink="http://www.w3.org/1999/xlink" width="100" zoomAndPan="magnify" viewBox="0 0 75 30.000001" height="40" preserveAspectRatio="xMidYMid meet" version="1.0"><defs><g/></defs><g fill="#38b6ff" fill-opacity="1"><g transform="translate(20.801914, 23.225815)"><g><path d="M 3.78125 0.09375 C 3.1875 0.09375 2.65625 -0.03125 2.1875 -0.28125 C 1.726562 -0.539062 1.363281 -0.9375 1.09375 -1.46875 C 0.820312 -2 0.6875 -2.660156 0.6875 -3.453125 C 0.6875 -4.242188 0.820312 -4.90625 1.09375 -5.4375 C 1.363281 -5.96875 1.726562 -6.359375 2.1875 -6.609375 C 2.65625 -6.867188 3.1875 -7 3.78125 -7 C 4.382812 -7 4.914062 -6.867188 5.375 -6.609375 C 5.84375 -6.359375 6.210938 -5.96875 6.484375 -5.4375 C 6.753906 -4.90625 6.890625 -4.242188 6.890625 -3.453125 C 6.890625 -2.660156 6.753906 -2 6.484375 -1.46875 C 6.210938 -0.9375 5.84375 -0.539062 5.375 -0.28125 C 4.914062 -0.03125 4.382812 0.09375 3.78125 0.09375 Z M 3.78125 -0.65625 C 4.5 -0.65625 5.050781 -0.878906 5.4375 -1.328125 C 5.820312 -1.773438 6.015625 -2.484375 6.015625 -3.453125 C 6.015625 -4.421875 5.820312 -5.128906 5.4375 -5.578125 C 5.050781 -6.023438 4.5 -6.25 3.78125 -6.25 C 2.300781 -6.25 1.5625 -5.316406 1.5625 -3.453125 C 1.5625 -1.585938 2.300781 -0.65625 3.78125 -0.65625 Z M 3.78125 -0.65625 "/></g></g></g><g fill="#38b6ff" fill-opacity="1"><g transform="translate(28.378338, 23.225815)"><g><path d="M 3.46875 0.09375 C 3.070312 0.09375 2.734375 0.0195312 2.453125 -0.125 C 2.171875 -0.269531 1.945312 -0.46875 1.78125 -0.71875 L 1.671875 -0.703125 L 1.671875 0 L 0.90625 0 L 0.90625 -7.296875 L 1.671875 -7.296875 L 1.671875 -4.4375 L 1.78125 -4.40625 C 2.175781 -5.007812 2.75 -5.3125 3.5 -5.3125 C 3.925781 -5.3125 4.300781 -5.210938 4.625 -5.015625 C 4.945312 -4.816406 5.195312 -4.515625 5.375 -4.109375 C 5.550781 -3.703125 5.640625 -3.203125 5.640625 -2.609375 C 5.640625 -2.015625 5.546875 -1.515625 5.359375 -1.109375 C 5.171875 -0.703125 4.910156 -0.398438 4.578125 -0.203125 C 4.253906 -0.00390625 3.882812 0.09375 3.46875 0.09375 Z M 3.28125 -0.59375 C 4.320312 -0.59375 4.84375 -1.265625 4.84375 -2.609375 C 4.84375 -3.296875 4.707031 -3.800781 4.4375 -4.125 C 4.164062 -4.457031 3.78125 -4.625 3.28125 -4.625 C 2.789062 -4.625 2.398438 -4.457031 2.109375 -4.125 C 1.816406 -3.789062 1.671875 -3.285156 1.671875 -2.609375 C 1.671875 -1.929688 1.816406 -1.425781 2.109375 -1.09375 C 2.398438 -0.757812 2.789062 -0.59375 3.28125 -0.59375 Z M 3.28125 -0.59375 "/></g></g></g><g fill="#38b6ff" fill-opacity="1"><g transform="translate(34.594407, 23.225815)"><g><path d="M 1.296875 -6.21875 C 1.128906 -6.21875 0.992188 -6.265625 0.890625 -6.359375 C 0.785156 -6.460938 0.734375 -6.597656 0.734375 -6.765625 C 0.734375 -6.921875 0.785156 -7.046875 0.890625 -7.140625 C 0.992188 -7.242188 1.128906 -7.296875 1.296875 -7.296875 C 1.460938 -7.296875 1.59375 -7.242188 1.6875 -7.140625 C 1.789062 -7.046875 1.84375 -6.921875 1.84375 -6.765625 C 1.84375 -6.597656 1.789062 -6.460938 1.6875 -6.359375 C 1.59375 -6.265625 1.460938 -6.21875 1.296875 -6.21875 Z M 0.90625 0 L 0.90625 -5.203125 L 1.671875 -5.203125 L 1.671875 0 Z M 0.90625 0 "/></g></g></g><g fill="#38b6ff" fill-opacity="1"><g transform="translate(37.178144, 23.225815)"><g><path d="M 2.703125 0.09375 C 2.285156 0.09375 1.914062 -0.00390625 1.59375 -0.203125 C 1.269531 -0.398438 1.019531 -0.695312 0.84375 -1.09375 C 0.664062 -1.5 0.578125 -2.003906 0.578125 -2.609375 C 0.578125 -3.203125 0.671875 -3.695312 0.859375 -4.09375 C 1.046875 -4.5 1.304688 -4.800781 1.640625 -5 C 1.972656 -5.207031 2.359375 -5.3125 2.796875 -5.3125 C 3.140625 -5.3125 3.445312 -5.242188 3.71875 -5.109375 C 4 -4.984375 4.238281 -4.769531 4.4375 -4.46875 L 4.53125 -4.484375 L 4.53125 -7.296875 L 5.3125 -7.296875 L 5.3125 0 L 4.53125 0 L 4.53125 -0.765625 L 4.4375 -0.78125 C 4.269531 -0.519531 4.039062 -0.304688 3.75 -0.140625 C 3.457031 0.015625 3.109375 0.09375 2.703125 0.09375 Z M 2.9375 -0.59375 C 3.425781 -0.59375 3.8125 -0.757812 4.09375 -1.09375 C 4.382812 -1.425781 4.53125 -1.929688 4.53125 -2.609375 C 4.53125 -3.285156 4.382812 -3.789062 4.09375 -4.125 C 3.8125 -4.457031 3.425781 -4.625 2.9375 -4.625 C 2.4375 -4.625 2.050781 -4.457031 1.78125 -4.125 C 1.507812 -3.800781 1.375 -3.296875 1.375 -2.609375 C 1.375 -1.265625 1.894531 -0.59375 2.9375 -0.59375 Z M 2.9375 -0.59375 "/></g></g></g><g fill="#38b6ff" fill-opacity="1"><g transform="translate(43.398941, 23.225815)"><g><path d="M 2.984375 0.09375 C 2.492188 0.09375 2.066406 -0.0078125 1.703125 -0.21875 C 1.335938 -0.425781 1.054688 -0.726562 0.859375 -1.125 C 0.671875 -1.53125 0.578125 -2.023438 0.578125 -2.609375 C 0.578125 -3.179688 0.671875 -3.671875 0.859375 -4.078125 C 1.054688 -4.484375 1.335938 -4.789062 1.703125 -5 C 2.066406 -5.207031 2.492188 -5.3125 2.984375 -5.3125 C 3.472656 -5.3125 3.898438 -5.207031 4.265625 -5 C 4.628906 -4.789062 4.910156 -4.484375 5.109375 -4.078125 C 5.304688 -3.671875 5.40625 -3.179688 5.40625 -2.609375 C 5.40625 -2.023438 5.304688 -1.53125 5.109375 -1.125 C 4.910156 -0.726562 4.628906 -0.425781 4.265625 -0.21875 C 3.898438 -0.0078125 3.472656 0.09375 2.984375 0.09375 Z M 2.984375 -0.59375 C 3.503906 -0.59375 3.898438 -0.753906 4.171875 -1.078125 C 4.453125 -1.410156 4.59375 -1.921875 4.59375 -2.609375 C 4.59375 -3.296875 4.453125 -3.800781 4.171875 -4.125 C 3.898438 -4.457031 3.503906 -4.625 2.984375 -4.625 C 2.460938 -4.625 2.0625 -4.457031 1.78125 -4.125 C 1.507812 -3.789062 1.375 -3.285156 1.375 -2.609375 C 1.375 -1.921875 1.507812 -1.410156 1.78125 -1.078125 C 2.0625 -0.753906 2.460938 -0.59375 2.984375 -0.59375 Z M 2.984375 -0.59375 "/></g></g></g><g fill="#38b6ff" fill-opacity="1"><g transform="translate(49.378837, 23.225815)"><g><path d="M 2.375 0.09375 C 2.050781 0.09375 1.75 0.0507812 1.46875 -0.03125 C 1.1875 -0.113281 0.945312 -0.226562 0.75 -0.375 C 0.5625 -0.53125 0.429688 -0.703125 0.359375 -0.890625 L 0.8125 -1.375 L 0.90625 -1.375 C 1.070312 -1.113281 1.273438 -0.914062 1.515625 -0.78125 C 1.753906 -0.65625 2.039062 -0.59375 2.375 -0.59375 C 2.757812 -0.59375 3.050781 -0.664062 3.25 -0.8125 C 3.445312 -0.957031 3.546875 -1.164062 3.546875 -1.4375 C 3.546875 -1.644531 3.484375 -1.816406 3.359375 -1.953125 C 3.242188 -2.085938 3.050781 -2.1875 2.78125 -2.25 L 1.90625 -2.46875 C 1.4375 -2.582031 1.09375 -2.757812 0.875 -3 C 0.65625 -3.25 0.546875 -3.554688 0.546875 -3.921875 C 0.546875 -4.203125 0.617188 -4.445312 0.765625 -4.65625 C 0.910156 -4.863281 1.117188 -5.023438 1.390625 -5.140625 C 1.660156 -5.253906 1.984375 -5.3125 2.359375 -5.3125 C 2.835938 -5.3125 3.210938 -5.242188 3.484375 -5.109375 C 3.765625 -4.972656 3.984375 -4.785156 4.140625 -4.546875 L 3.703125 -4.125 L 3.609375 -4.125 C 3.441406 -4.3125 3.257812 -4.445312 3.0625 -4.53125 C 2.863281 -4.625 2.628906 -4.671875 2.359375 -4.671875 C 2.015625 -4.671875 1.75 -4.609375 1.5625 -4.484375 C 1.382812 -4.359375 1.296875 -4.179688 1.296875 -3.953125 C 1.296875 -3.734375 1.359375 -3.5625 1.484375 -3.4375 C 1.617188 -3.3125 1.847656 -3.207031 2.171875 -3.125 L 3.03125 -2.921875 C 3.488281 -2.816406 3.816406 -2.640625 4.015625 -2.390625 C 4.222656 -2.140625 4.328125 -1.828125 4.328125 -1.453125 C 4.328125 -1.140625 4.253906 -0.867188 4.109375 -0.640625 C 3.960938 -0.410156 3.742188 -0.226562 3.453125 -0.09375 C 3.160156 0.03125 2.800781 0.09375 2.375 0.09375 Z M 2.375 0.09375 "/></g></g></g><g fill="#d9d9d9" fill-opacity="1"><g transform="translate(1.209676, 20.927426)"><g><path d="M 9.34375 -4.5625 L 9.34375 -2.140625 L 0.828125 -5.546875 L 0.828125 -7.828125 L 9.34375 -11.234375 L 9.34375 -8.828125 L 3.96875 -6.796875 L 3.96875 -6.59375 Z M 9.34375 -4.5625 "/></g></g></g><g fill="#eb6138" fill-opacity="1"><g transform="translate(13.695815, 12.701615)"><g><path d="M 2.28125 0.09375 C 1.9375 0.09375 1.617188 0.046875 1.328125 -0.046875 C 1.046875 -0.148438 0.804688 -0.289062 0.609375 -0.46875 C 0.410156 -0.644531 0.265625 -0.84375 0.171875 -1.0625 L 0.59375 -1.609375 L 0.71875 -1.609375 C 0.851562 -1.316406 1.054688 -1.082031 1.328125 -0.90625 C 1.597656 -0.738281 1.914062 -0.65625 2.28125 -0.65625 C 2.570312 -0.65625 2.8125 -0.703125 3 -0.796875 C 3.1875 -0.890625 3.328125 -1.046875 3.421875 -1.265625 C 3.515625 -1.492188 3.5625 -1.796875 3.5625 -2.171875 L 3.5625 -6.90625 L 4.375 -6.90625 L 4.375 -2.15625 C 4.375 -1.375 4.195312 -0.800781 3.84375 -0.4375 C 3.5 -0.0820312 2.976562 0.09375 2.28125 0.09375 Z M 2.28125 0.09375 "/></g></g></g><g fill="#eb6138" fill-opacity="1"><g transform="translate(19.047497, 12.701615)"><g><path d="M 2.15625 0.09375 C 1.632812 0.09375 1.226562 -0.0351562 0.9375 -0.296875 C 0.65625 -0.566406 0.515625 -0.953125 0.515625 -1.453125 C 0.515625 -1.753906 0.578125 -2.007812 0.703125 -2.21875 C 0.828125 -2.4375 1.023438 -2.613281 1.296875 -2.75 C 1.566406 -2.882812 1.914062 -2.988281 2.34375 -3.0625 C 2.71875 -3.125 3.003906 -3.191406 3.203125 -3.265625 C 3.398438 -3.347656 3.53125 -3.4375 3.59375 -3.53125 C 3.664062 -3.632812 3.703125 -3.757812 3.703125 -3.90625 C 3.703125 -4.144531 3.617188 -4.328125 3.453125 -4.453125 C 3.296875 -4.578125 3.039062 -4.640625 2.6875 -4.640625 C 2.34375 -4.640625 2.050781 -4.570312 1.8125 -4.4375 C 1.570312 -4.3125 1.351562 -4.117188 1.15625 -3.859375 L 1.0625 -3.859375 L 0.6875 -4.390625 C 0.90625 -4.671875 1.179688 -4.894531 1.515625 -5.0625 C 1.859375 -5.226562 2.25 -5.3125 2.6875 -5.3125 C 3.300781 -5.3125 3.753906 -5.175781 4.046875 -4.90625 C 4.335938 -4.632812 4.484375 -4.257812 4.484375 -3.78125 L 4.484375 -1.03125 C 4.484375 -0.738281 4.601562 -0.59375 4.84375 -0.59375 C 4.925781 -0.59375 5.003906 -0.609375 5.078125 -0.640625 L 5.140625 -0.609375 L 5.234375 -0.078125 C 5.179688 -0.046875 5.109375 -0.0195312 5.015625 0 C 4.921875 0.0195312 4.828125 0.03125 4.734375 0.03125 C 4.441406 0.03125 4.222656 -0.03125 4.078125 -0.15625 C 3.929688 -0.28125 3.835938 -0.460938 3.796875 -0.703125 L 3.703125 -0.71875 C 3.546875 -0.445312 3.34375 -0.242188 3.09375 -0.109375 C 2.84375 0.0234375 2.53125 0.09375 2.15625 0.09375 Z M 2.3125 -0.515625 C 2.601562 -0.515625 2.851562 -0.582031 3.0625 -0.71875 C 3.28125 -0.851562 3.445312 -1.039062 3.5625 -1.28125 C 3.675781 -1.519531 3.734375 -1.800781 3.734375 -2.125 L 3.734375 -2.78125 L 3.640625 -2.796875 C 3.523438 -2.710938 3.382812 -2.644531 3.21875 -2.59375 C 3.050781 -2.539062 2.816406 -2.492188 2.515625 -2.453125 C 2.210938 -2.410156 1.972656 -2.34375 1.796875 -2.25 C 1.617188 -2.164062 1.488281 -2.054688 1.40625 -1.921875 C 1.332031 -1.796875 1.296875 -1.640625 1.296875 -1.453125 C 1.296875 -1.140625 1.382812 -0.90625 1.5625 -0.75 C 1.75 -0.59375 2 -0.515625 2.3125 -0.515625 Z M 2.3125 -0.515625 "/></g></g></g><g fill="#eb6138" fill-opacity="1"><g transform="translate(24.436966, 12.701615)"><g><path d="M 2.703125 0.09375 C 2.285156 0.09375 1.914062 -0.00390625 1.59375 -0.203125 C 1.269531 -0.398438 1.019531 -0.695312 0.84375 -1.09375 C 0.664062 -1.5 0.578125 -2.003906 0.578125 -2.609375 C 0.578125 -3.203125 0.671875 -3.695312 0.859375 -4.09375 C 1.046875 -4.5 1.304688 -4.800781 1.640625 -5 C 1.972656 -5.207031 2.359375 -5.3125 2.796875 -5.3125 C 3.140625 -5.3125 3.445312 -5.242188 3.71875 -5.109375 C 4 -4.984375 4.238281 -4.769531 4.4375 -4.46875 L 4.53125 -4.484375 L 4.53125 -7.296875 L 5.3125 -7.296875 L 5.3125 0 L 4.53125 0 L 4.53125 -0.765625 L 4.4375 -0.78125 C 4.269531 -0.519531 4.039062 -0.304688 3.75 -0.140625 C 3.457031 0.015625 3.109375 0.09375 2.703125 0.09375 Z M 2.9375 -0.59375 C 3.425781 -0.59375 3.8125 -0.757812 4.09375 -1.09375 C 4.382812 -1.425781 4.53125 -1.929688 4.53125 -2.609375 C 4.53125 -3.285156 4.382812 -3.789062 4.09375 -4.125 C 3.8125 -4.457031 3.425781 -4.625 2.9375 -4.625 C 2.4375 -4.625 2.050781 -4.457031 1.78125 -4.125 C 1.507812 -3.800781 1.375 -3.296875 1.375 -2.609375 C 1.375 -1.265625 1.894531 -0.59375 2.9375 -0.59375 Z M 2.9375 -0.59375 "/></g></g></g><g fill="#eb6138" fill-opacity="1"><g transform="translate(30.657764, 12.701615)"><g><path d="M 4.96875 -2.421875 L 1.390625 -2.421875 C 1.410156 -1.796875 1.5625 -1.332031 1.84375 -1.03125 C 2.125 -0.738281 2.507812 -0.59375 3 -0.59375 C 3.375 -0.59375 3.671875 -0.65625 3.890625 -0.78125 C 4.117188 -0.914062 4.300781 -1.125 4.4375 -1.40625 L 4.53125 -1.40625 L 5.03125 -1.109375 C 4.875 -0.734375 4.628906 -0.4375 4.296875 -0.21875 C 3.972656 -0.0078125 3.539062 0.09375 3 0.09375 C 2.5 0.09375 2.066406 -0.00390625 1.703125 -0.203125 C 1.335938 -0.398438 1.054688 -0.695312 0.859375 -1.09375 C 0.671875 -1.5 0.578125 -2.003906 0.578125 -2.609375 C 0.578125 -3.191406 0.675781 -3.6875 0.875 -4.09375 C 1.082031 -4.5 1.363281 -4.800781 1.71875 -5 C 2.082031 -5.207031 2.492188 -5.3125 2.953125 -5.3125 C 3.617188 -5.3125 4.140625 -5.117188 4.515625 -4.734375 C 4.890625 -4.359375 5.078125 -3.800781 5.078125 -3.0625 C 5.078125 -2.78125 5.070312 -2.585938 5.0625 -2.484375 Z M 4.328125 -3.0625 C 4.304688 -3.625 4.179688 -4.03125 3.953125 -4.28125 C 3.722656 -4.53125 3.390625 -4.65625 2.953125 -4.65625 C 2.492188 -4.65625 2.132812 -4.523438 1.875 -4.265625 C 1.613281 -4.015625 1.457031 -3.613281 1.40625 -3.0625 Z M 4.328125 -3.0625 "/></g></g></g><g fill="#d9d9d9" fill-opacity="1"><g transform="translate(55.245961, 21.532262)"><g><path d="M 2.546875 1.96875 L 0.0625 1.96875 L 5.203125 -14.609375 L 7.703125 -14.609375 Z M 2.546875 1.96875 "/></g></g></g><g fill="#d9d9d9" fill-opacity="1"><g transform="translate(63.36086, 21.532262)"><g><path d="M 9.578125 -5.546875 L 1.0625 -2.140625 L 1.0625 -4.5625 L 6.4375 -6.59375 L 6.4375 -6.796875 L 1.0625 -8.828125 L 1.0625 -11.234375 L 9.578125 -7.828125 Z M 9.578125 -5.546875 "/></g></g></g></svg>